<?xml version="1.0" encoding="UTF-8" standalone="no"?>
<!DOCTYPE svg PUBLIC "-//W3C//DTD SVG 1.1//EN" "http://www.w3.org/Graphics/SVG/1.1/DTD/svg11.dtd">
<svg width="100%" height="100%" viewBox="0 0 256 256" version="1.1" xmlns="http://www.w3.org/2000/svg" xmlns:xlink="http://www.w3.org/1999/xlink" xml:space="preserve" xmlns:serif="http://www.serif.com/" style="fill-rule:evenodd;clip-rule:evenodd;stroke-linecap:round;stroke-linejoin:round;">
    <g transform="matrix(1.001186,0,0,1.001186,-0.151819,-0.151819)">
        <g transform="matrix(1.195081,0,0,1.195081,-24.970383,-24.970383)">
            <rect x="0" y="0" width="256" height="256" style="fill:none;fill-rule:nonzero;"/>
        </g>
        <g transform="matrix(1.195081,0,0,1.195081,-24.970383,-24.970383)">
            <circle cx="128" cy="128" r="96" style="fill:none;stroke:rgb(0,85,230);stroke-width:16px;"/>
        </g>
        <g transform="matrix(1.195081,0,0,1.195081,-24.970383,-24.970383)">
            <path d="M168,128C168,192 128,224 128,224C128,224 88,192 88,128C88,64 128,32 128,32C128,32 168,64 168,128Z" style="fill:none;fill-rule:nonzero;stroke:rgb(0,85,230);stroke-width:16px;"/>
        </g>
        <g transform="matrix(1.195081,0,0,1.195081,-24.970383,-24.970383)">
            <path d="M37.46,96L218.54,96" style="fill:none;fill-rule:nonzero;stroke:rgb(0,85,230);stroke-width:16px;"/>
        </g>
        <g transform="matrix(1.195081,0,0,1.195081,-24.970383,-24.970383)">
            <path d="M37.46,160L218.54,160" style="fill:none;fill-rule:nonzero;stroke:rgb(0,85,230);stroke-width:16px;"/>
        </g>
    </g>
</svg>
